HIERARCHY
ROOT hip
{
	OFFSET 0.000000 0.000000 0.000000 
	CHANNELS 6 Xposition Yposition Zposition Xrotation Zrotation Yrotation
	JOINT abdomen
	{
		OFFSET 0.000000 3.402643 0.000000 
		CHANNELS 3 Xrotation Zrotation Yrotation
		JOINT chest
		{
			OFFSET 0.000000 8.438565 -0.680529 
			CHANNELS 3 Xrotation Zrotation Yrotation
			JOINT neck
			{
				OFFSET 0.000000 10.207942 -0.272212 
				CHANNELS 3 Xrotation Zrotation Yrotation
				JOINT head
				{
					OFFSET 0.000000 3.130431 0.000000 
					CHANNELS 3 Xrotation Zrotation Yrotation
					End Site
					{
						OFFSET 0.000000 3.130435 0.000000 
					}
				}
			}
			JOINT lCollar
			{
				OFFSET 3.470700 6.669187 -0.816635 
				CHANNELS 3 Yrotation Zrotation Xrotation
				JOINT lShldr
				{
					OFFSET 3.198488 0.000000 0.000000 
					CHANNELS 3 Zrotation Yrotation Xrotation
					JOINT lForeArm
					{
						OFFSET 10.139888 0.000000 0.000000 
						CHANNELS 3 Yrotation Zrotation Xrotation
						JOINT lHand
						{
							OFFSET 8.370511 0.000000 0.000000 
							CHANNELS 3 Zrotation Yrotation Xrotation
							End Site
							{
								OFFSET 4.083176 0.000000 0.000000 
							}
						}
					}
				}
			}
			JOINT rCollar
			{
				OFFSET -3.470700 6.669187 -0.816635 
				CHANNELS 3 Yrotation Zrotation Xrotation
				JOINT rShldr
				{
					OFFSET -3.198488 0.000000 0.000000 
					CHANNELS 3 Zrotation Yrotation Xrotation
					JOINT rForeArm
					{
						OFFSET -10.139888 0.000000 0.000000 
						CHANNELS 3 Yrotation Zrotation Xrotation
						JOINT rHand
						{
							OFFSET -8.370511 0.000000 0.000000 
							CHANNELS 3 Zrotation Yrotation Xrotation
							End Site
							{
								OFFSET -4.083176 0.000000 0.000000 
							}
						}
					}
				}
			}
		}
	}
	JOINT lThigh
	{
		OFFSET 5.308129 -1.633274 1.361059 
		CHANNELS 3 Xrotation Zrotation Yrotation
		JOINT lShin
		{
			OFFSET -2.041588 -20.007561 0.000000 
			CHANNELS 3 Xrotation Zrotation Yrotation
			JOINT lFoot
			{
				OFFSET 0.000000 -19.190928 -1.224953 
				CHANNELS 3 Xrotation Yrotation Zrotation
				End Site
				{
					OFFSET 0.000000 -2.449906 4.627600 
				}
			}
		}
	}
	JOINT rThigh
	{
		OFFSET -5.308129 -1.633274 1.361059 
		CHANNELS 3 Xrotation Zrotation Yrotation
		JOINT rShin
		{
			OFFSET 2.041588 -20.007561 0.000000 
			CHANNELS 3 Xrotation Zrotation Yrotation
			JOINT rFoot
			{
				OFFSET 0.000000 -19.190928 -1.224953 
				CHANNELS 3 Xrotation Yrotation Zrotation
				End Site
				{
					OFFSET 0.000000 -2.449906 4.627600 
				}
			}
		}
	}
}
MOTION
Frames: 13
Frame Time: 0.033333
-39.931248 48.083660 -8.143562 -4.713458 -3.792895 32.452389 0.000000 0.000000 0.000000 5.740502 -1.767541 0.371218 21.881962 -2.137944 -1.495286 21.865986 -4.276618 -1.058305 -0.418905 6.926753 5.812939 -40.409073 -4.178490 -69.979874 -94.307854 -9.853565 -58.579071 15.492782 6.258796 -3.151460 -1.916987 -9.563910 5.569440 52.940544 -13.190402 -61.695213 98.763275 18.499138 -63.322239 -26.897770 -1.946809 -3.831392 -3.396015 5.707785 6.336499 17.668962 -4.356332 16.406939 -13.313797 -0.133452 1.110990 -4.460652 -8.850602 -9.479970 1.936452 6.759414 -26.870041 14.229936 0.378001 3.083365 
-39.928604 48.094109 -8.178290 -4.782469 -3.977215 32.764050 0.000000 0.000000 0.000000 5.674537 -1.562474 0.331908 21.456913 -2.020849 -1.436720 22.127209 -4.032480 -1.086794 -0.521334 6.749362 5.752429 -39.496655 -6.582771 -70.349426 -94.396339 -9.713568 -55.617977 14.145621 5.509491 -3.270647 -1.860413 -8.459093 5.543535 51.797195 -12.699174 -61.466969 99.610046 18.521742 -61.972889 -26.297119 -1.849613 -3.847164 -3.551412 5.881858 6.384703 17.706600 -4.335961 16.201954 -13.283322 -0.136774 1.196594 -5.076342 -8.833362 -9.305767 3.028234 6.664947 -26.968319 14.805297 0.447098 3.430640 
-39.925148 48.135811 -8.211493 -4.891271 -4.139632 32.810555 0.000000 0.000000 0.000000 5.683471 -1.318322 0.429798 20.930656 -2.001513 -1.202144 22.289978 -3.602774 -1.164722 -0.529224 6.041907 5.754527 -38.752857 -8.378469 -70.662193 -94.666664 -9.754538 -53.786785 12.934424 6.074947 -3.226216 -1.834163 -7.173008 5.566676 52.216312 -11.055902 -63.562115 100.656784 19.259211 -60.283272 -24.256260 -2.490917 -3.687415 -3.377580 6.100073 6.507952 17.349163 -4.416150 15.917326 -13.105424 -0.150031 1.342136 -4.860202 -8.614895 -9.154904 2.433211 6.586118 -27.213043 15.255693 0.453845 3.475240 
-39.964790 48.159592 -8.240849 -4.786725 -4.352894 32.654568 0.000000 0.000000 0.000000 5.536177 -1.230422 0.498142 20.090759 -1.796587 -1.026111 22.557264 -3.602893 -1.066645 -0.574570 5.536843 5.631041 -39.406990 -9.193931 -70.192146 -95.678581 -9.945888 -53.646416 13.073241 5.182498 -3.316149 -1.606337 -6.176609 5.477641 52.004143 -10.331090 -62.102150 101.388412 18.649044 -59.878262 -25.169609 -2.742093 -3.642616 -3.395759 6.380058 6.744346 17.160336 -4.590157 15.430311 -13.093117 -0.150909 1.483594 -4.862424 -8.425490 -8.895054 1.807854 6.509581 -27.167305 15.763397 0.460977 3.608140 
-39.977039 48.181885 -8.277870 -4.572881 -4.359293 32.350830 0.000000 0.000000 0.000000 5.455850 -1.201102 0.615304 19.173773 -1.767267 -1.074912 22.940615 -4.003122 -1.136184 -0.681439 4.682671 5.564846 -40.732780 -9.000309 -69.188385 -96.986969 -10.170115 -54.180183 13.727176 5.347970 -3.285060 -1.502006 -5.370308 5.421686 52.314117 -9.799769 -59.659653 101.666946 17.785032 -58.825378 -25.350988 -2.375381 -3.727334 -3.279681 6.313887 6.819140 16.689911 -4.803704 15.449495 -12.885555 -0.193851 1.657133 -4.735442 -8.405792 -8.728407 0.937708 6.395885 -26.890715 15.946566 0.490553 3.622021 
-39.998413 48.208382 -8.292780 -4.554765 -4.770664 32.234127 0.000000 0.000000 0.000000 5.279726 -0.996006 0.761773 18.471577 -1.239996 -1.123418 22.648159 -4.129890 -1.244046 -1.076823 4.430078 5.416066 -42.809021 -8.030429 -67.160065 -98.267349 -10.186501 -55.486950 15.131302 6.405904 -3.134362 -1.074144 -2.571880 5.336462 51.131969 -10.463010 -57.160870 101.441704 16.867989 -57.806309 -25.094847 -2.253468 -3.744022 -3.502785 6.711298 6.963897 16.713449 -4.763870 15.229182 -12.885437 -0.178407 1.643236 -3.934008 -7.817051 -8.183340 -1.179758 6.197758 -25.988062 15.727367 0.464350 3.401128 
-40.068352 48.194317 -8.319990 -4.191873 -5.306623 32.421238 0.000000 0.000000 0.000000 4.929522 -0.654293 0.185535 17.402269 -1.308268 -1.279632 23.062769 -3.885807 -1.243339 -1.599400 2.446410 5.071202 -43.851040 -5.657153 -65.361000 -99.657234 -10.080855 -56.572613 16.785439 5.531442 -3.214756 -1.207683 -1.204249 5.029232 51.597870 -10.107149 -53.747040 101.607948 15.713328 -57.738548 -25.709309 -1.999055 -3.807342 -4.479159 7.132205 7.013968 17.298525 -4.841573 14.789685 -13.081065 -0.178467 1.633099 -4.342300 -7.404036 -7.325566 -1.259296 5.770774 -24.202322 15.583528 0.481682 3.645557 
-40.106186 48.244209 -8.272928 -4.052130 -5.385918 31.334671 0.000000 0.000000 0.000000 4.857928 -0.654275 0.468719 16.715637 -1.689373 -0.556974 22.741148 -3.163574 -1.007560 -1.051996 0.819639 4.999683 -46.382080 -3.538183 -62.494518 -100.347824 -9.556801 -56.268272 16.874996 5.793778 -3.177622 -0.536067 0.188283 5.009559 52.563461 -10.525645 -50.930309 101.462906 14.624531 -56.250267 -25.120512 -2.307754 -3.739743 -4.029214 7.207852 7.190627 16.585892 -4.997825 15.374270 -12.858156 -0.203980 1.575448 -4.147861 -7.142857 -6.609804 -1.548798 5.473790 -20.086081 14.742152 0.424471 3.774638 
-40.161736 48.277103 -8.226162 -3.744128 -5.519771 30.900692 0.000000 0.000000 0.000000 4.742398 -0.585926 0.361309 16.457870 -1.454907 -0.879367 20.715569 -4.472093 -0.911529 -0.984954 -0.976047 4.882821 -48.623875 -0.420850 -59.442070 -100.890732 -8.972312 -56.970322 17.662613 6.148906 -3.108603 -0.459613 1.469951 4.913632 53.847240 -10.836437 -48.103146 101.785271 13.590117 -56.545307 -26.301392 -2.077671 -3.799595 -4.011421 7.279543 7.252028 16.116362 -5.088370 15.743494 -12.672351 -0.167807 1.538752 -4.090051 -7.007405 -6.074901 -1.451666 5.297803 -16.434530 13.858430 0.403196 3.813194 
-40.201271 48.241524 -8.134940 -3.635861 -5.842610 30.565941 0.000000 0.000000 0.000000 4.511075 -0.419921 0.087888 15.703321 -1.464711 -0.771981 20.474518 -3.554269 -0.880848 -1.065390 -2.311162 4.670701 -51.697624 4.219615 -55.482178 -101.585617 -8.132386 -56.382805 17.792112 5.264543 -3.232842 0.064427 3.385802 4.705181 56.503555 -9.485593 -50.240143 101.858528 13.625716 -55.039360 -25.756739 -3.037798 -3.586875 -4.540024 7.644216 7.372386 16.948084 -5.070259 15.723678 -13.126732 -0.150267 1.232863 -3.739260 -6.842765 -5.732877 -1.422608 5.414358 -12.288627 12.523054 0.394592 3.691622 
-40.217476 48.185940 -8.021187 -3.500820 -5.547858 29.644356 0.000000 0.000000 0.000000 4.595000 -0.693344 0.380832 14.519422 -1.679597 -0.596020 21.646362 -3.017085 -1.036805 -0.479180 -2.842369 4.751617 -56.834579 7.188405 -52.665741 -101.778450 -7.355775 -54.748783 17.235666 5.388594 -3.224402 0.479035 4.822131 4.781251 56.106968 -14.169318 -41.697392 101.411018 11.601312 -55.872662 -24.880075 -1.076534 -3.990100 -4.432726 7.478161 7.397079 17.397400 -5.187517 16.536167 -13.501535 -0.133363 0.936574 -2.713135 -7.230189 -5.671380 -1.746289 5.435912 -7.058156 10.831709 0.427388 4.946109 
-40.254898 48.166470 -7.962726 -2.868184 -6.151081 29.807201 0.000000 0.000000 0.000000 3.967161 -0.468744 -0.283274 13.523407 -1.513570 -0.664347 20.790955 -2.226371 -0.752524 -0.673069 -3.113985 4.185853 -61.777626 11.510430 -49.496265 -101.694481 -6.467192 -54.574173 16.991943 5.232527 -3.250784 0.448913 5.936784 4.172287 58.741920 -15.590637 -38.392166 100.927475 10.418944 -54.082592 -24.108332 -1.633412 -3.859627 -5.564967 7.770926 7.316522 17.964447 -5.116171 16.546095 -13.747719 -0.097079 0.682473 -2.517754 -7.463559 -5.897035 -1.610358 5.914822 -3.958037 8.656617 0.396522 5.761375 
-40.302761 48.203724 -7.836593 -2.521243 -6.237795 29.222603 0.000000 0.000000 0.000000 3.810966 -0.556636 -0.244224 12.473841 -1.513617 -0.488627 20.652025 -1.386611 -0.713154 -0.202400 -2.951308 4.048608 -67.238533 14.960197 -45.959763 -101.542328 -5.621954 -54.737141 18.785175 4.770708 -3.289307 0.637005 6.828609 4.021068 61.048393 -17.186058 -34.271839 100.516960 9.052805 -53.036312 -25.306347 -0.556200 -4.100850 -5.455530 7.757452 7.286523 17.421890 -5.112369 16.816780 -13.562737 -0.071128 0.575412 -2.392466 -7.684724 -6.015183 -0.292514 5.892086 -2.541300 6.493011 0.331853 6.269252 
